<svg width="16" height="17" viewBox="0 0 16 17" fill="none" xmlns="http://www.w3.org/2000/svg">
<path d="M8.1951 4.02876C8.45545 3.76841 8.87756 3.76841 9.13791 4.02876L13.1379 8.02876C13.2629 8.15378 13.3332 8.32335 13.3332 8.50016C13.3332 8.67697 13.2629 8.84654 13.1379 8.97157L9.13791 12.9716C8.87756 13.2319 8.45545 13.2319 8.1951 12.9716C7.93475 12.7112 7.93475 12.2891 8.1951 12.0288L11.057 9.16683L3.33317 9.16683C2.96498 9.16683 2.6665 8.86835 2.6665 8.50016C2.6665 8.13197 2.96498 7.8335 3.33317 7.8335H11.057L8.1951 4.97157C7.93475 4.71122 7.93475 4.28911 8.1951 4.02876Z" fill="#DADDE1"/>
</svg>
