<svg width="12" height="14" viewBox="0 0 12 14" fill="none" xmlns="http://www.w3.org/2000/svg">
<path d="M0.251051 7.10826C0.585787 6.77353 1.1285 6.77353 1.46323 7.10826L5.14286 10.7879L5.14286 0.857212C5.14286 0.383825 5.52661 6.96182e-05 6 6.96182e-05C6.47339 6.96182e-05 6.85714 0.383825 6.85714 0.857212L6.85714 10.7879L10.5368 7.10826C10.8715 6.77353 11.4142 6.77353 11.7489 7.10826C12.0837 7.443 12.0837 7.98571 11.7489 8.32045L6.60609 13.4633C6.44535 13.624 6.22733 13.7144 6 13.7144C5.77267 13.7144 5.55465 13.624 5.39391 13.4633L0.251051 8.32045C-0.0836838 7.98571 -0.0836838 7.443 0.251051 7.10826Z" fill="#DADDE1"/>
</svg>
