<svg width="12" height="11" viewBox="0 0 12 11" fill="none" xmlns="http://www.w3.org/2000/svg">
<path d="M5.78033 0.21967C6.07322 0.512563 6.07322 0.987437 5.78033 1.28033L2.56066 4.5H11.25C11.6642 4.5 12 4.83579 12 5.25C12 5.66421 11.6642 6 11.25 6H2.56066L5.78033 9.21967C6.07322 9.51256 6.07322 9.98744 5.78033 10.2803C5.48744 10.5732 5.01256 10.5732 4.71967 10.2803L0.21967 5.78033C0.0790176 5.63968 0 5.44891 0 5.25C0 5.05109 0.0790177 4.86032 0.21967 4.71967L4.71967 0.21967C5.01256 -0.0732233 5.48744 -0.0732233 5.78033 0.21967Z" fill="#121212"/>
</svg>
