<svg width="20" height="20" viewBox="0 0 20 20" fill="none" xmlns="http://www.w3.org/2000/svg">
<path d="M10.2442 4.41083C10.5697 4.08539 11.0973 4.08539 11.4228 4.41083L16.4228 9.41083C16.579 9.56711 16.6668 9.77907 16.6668 10.0001C16.6668 10.2211 16.579 10.4331 16.4228 10.5893L11.4228 15.5893C11.0973 15.9148 10.5697 15.9148 10.2442 15.5893C9.9188 15.2639 9.9188 14.7363 10.2442 14.4108L13.8217 10.8334L4.16683 10.8334C3.70659 10.8334 3.3335 10.4603 3.3335 10.0001C3.3335 9.53985 3.70659 9.16675 4.16683 9.16675L13.8217 9.16675L10.2442 5.58934C9.9188 5.2639 9.9188 4.73626 10.2442 4.41083Z" fill="#121212"/>
</svg>
