<svg width="16" height="16" viewBox="0 0 16 16" fill="none" xmlns="http://www.w3.org/2000/svg">
<path d="M3.52876 7.80466C3.26841 7.54431 3.26841 7.1222 3.52876 6.86185L7.52876 2.86185C7.65378 2.73682 7.82335 2.66658 8.00016 2.66658C8.17697 2.66658 8.34654 2.73682 8.47157 2.86185L12.4716 6.86185C12.7319 7.1222 12.7319 7.54431 12.4716 7.80466C12.2112 8.06501 11.7891 8.06501 11.5288 7.80466L8.66683 4.94273L8.66683 12.6666C8.66683 13.0348 8.36835 13.3333 8.00016 13.3333C7.63197 13.3333 7.3335 13.0348 7.3335 12.6666L7.3335 4.94273L4.47157 7.80466C4.21122 8.06501 3.78911 8.06501 3.52876 7.80466Z" fill="white"/>
</svg>
