<svg width="30" height="28" viewBox="0 0 30 28" fill="none" xmlns="http://www.w3.org/2000/svg">
<g clip-path="url(#clip0_205_39)">
<path d="M21.1881 1.42863H22.3542V0.262451H21.1881V1.42863ZM20.3635 26.8961C20.8189 27.3516 21.5572 27.3516 22.0127 26.8961L29.4342 19.4746C29.8897 19.0191 29.8897 18.2808 29.4342 17.8253C28.9788 17.3699 28.2404 17.3699 27.785 17.8253L21.1881 24.4223L14.5912 17.8253C14.1357 17.3699 13.3974 17.3699 12.942 17.8253C12.4865 18.2808 12.4865 19.0191 12.942 19.4746L20.3635 26.8961ZM0.357178 2.59481H21.1881V0.262451H0.357178V2.59481ZM20.0219 1.42863V26.0715H22.3542V1.42863H20.0219Z" fill="white"/>
</g>
<defs>
<clipPath id="clip0_205_39">
<rect width="30" height="27.8571" fill="white"/>
</clipPath>
</defs>
</svg>
