<svg width="86" height="15" viewBox="0 0 86 15" fill="none" xmlns="http://www.w3.org/2000/svg">
<path d="M0.856 1.184H3.79L6.67 10.184L9.586 1.184H12.502L8.236 14H5.05L0.856 1.184ZM16.4059 1.184V14H13.5799V1.184H16.4059ZM30.2825 1.184L25.2605 6.242L30.7505 14H27.2225L23.3345 8.24L21.6965 9.86V14H18.9245V1.184H21.6965V6.512L26.7365 1.184H30.2825ZM41.4007 1.184V3.578H37.5487V14H34.7227V3.578H30.8707V1.184H41.4007ZM48.6786 0.877999C50.5506 0.877999 52.0626 1.502 53.2146 2.75C54.3786 3.986 54.9606 5.606 54.9606 7.61C54.9606 9.614 54.3786 11.234 53.2146 12.47C52.0626 13.694 50.5446 14.306 48.6606 14.306C46.7646 14.306 45.2346 13.694 44.0706 12.47C42.9066 11.234 42.3246 9.614 42.3246 7.61C42.3246 5.582 42.9006 3.956 44.0526 2.732C45.2166 1.496 46.7586 0.877999 48.6786 0.877999ZM48.6426 3.182C47.5866 3.182 46.7406 3.578 46.1046 4.37C45.4806 5.162 45.1686 6.224 45.1686 7.556C45.1686 8.936 45.4806 10.016 46.1046 10.796C46.7286 11.576 47.5866 11.972 48.6786 11.984C49.7466 11.984 50.5866 11.588 51.1986 10.796C51.8106 10.004 52.1166 8.924 52.1166 7.556C52.1166 6.212 51.8046 5.15 51.1806 4.37C50.5566 3.578 49.7106 3.182 48.6426 3.182ZM57.0004 1.184H63.3724C64.6444 1.184 65.6824 1.484 66.4864 2.084C67.2904 2.684 67.6924 3.596 67.6924 4.82C67.6924 5.564 67.5124 6.218 67.1524 6.782C66.7924 7.334 66.2944 7.73 65.6584 7.97C66.7624 8.198 67.3924 9.194 67.5484 10.958C67.5484 11.018 67.5604 11.204 67.5844 11.516C67.6084 11.828 67.6324 12.08 67.6564 12.272C67.6804 12.452 67.7104 12.674 67.7464 12.938C67.7824 13.202 67.8364 13.424 67.9084 13.604C67.9804 13.784 68.0644 13.916 68.1604 14H65.2444C65.1484 13.808 65.0764 13.568 65.0284 13.28C64.9804 12.98 64.9384 12.602 64.9024 12.146C64.8664 11.678 64.8484 11.42 64.8484 11.372C64.7524 10.472 64.5244 9.848 64.1644 9.5C63.8164 9.152 63.1924 8.978 62.2924 8.978H59.7904V14H57.0004V1.184ZM59.7904 3.398V6.944H62.4544C63.2344 6.944 63.8404 6.824 64.2724 6.584C64.7164 6.332 64.9384 5.846 64.9384 5.126C64.9384 4.454 64.7224 3.998 64.2904 3.758C63.8704 3.518 63.3004 3.398 62.5804 3.398H59.7904ZM85.7464 1.184V14H82.9384V8.474H77.7004V14H74.8924V1.184H77.7004V6.008H82.9384V1.184H85.7464Z" fill="white"/>
</svg>
