<svg width="162" height="149" viewBox="0 0 162 149" fill="none" xmlns="http://www.w3.org/2000/svg">
<path d="M42.1844 140.223L41.2541 139.556C41.4975 139.123 41.5336 138.66 41.3622 138.169C41.1874 137.675 40.8345 137.237 40.3034 136.855C39.8031 136.496 39.3053 136.318 38.81 136.321C38.3087 136.324 37.9276 136.508 37.6668 136.871C37.4428 137.182 37.3731 137.522 37.4574 137.888C37.5384 138.253 37.7822 138.68 38.189 139.17L38.9627 140.099C39.5225 140.766 39.8481 141.368 39.9393 141.906C40.0282 142.448 39.8917 142.97 39.53 143.474C39.087 144.091 38.4819 144.419 37.7148 144.461C36.9442 144.499 36.1735 144.242 35.4025 143.688C34.6658 143.159 34.1986 142.523 34.0009 141.778C33.8008 141.038 33.9132 140.349 34.338 139.715L35.2632 140.379C35.0188 140.806 34.965 141.243 35.1017 141.689C35.2383 142.134 35.5483 142.531 36.0313 142.878C36.5111 143.223 36.9846 143.391 37.452 143.384C37.916 143.374 38.2784 143.188 38.5393 142.825C38.741 142.544 38.7976 142.234 38.7086 141.894C38.6139 141.557 38.3615 141.142 37.9513 140.65L37.3228 139.887C36.693 139.144 36.3247 138.493 36.2178 137.933C36.1109 137.373 36.2481 136.828 36.6296 136.297C37.1168 135.619 37.7534 135.261 38.5391 135.223C39.319 135.185 40.1355 135.473 40.9888 136.086C41.7768 136.652 42.2795 137.311 42.4968 138.064C42.7141 138.817 42.6099 139.537 42.1844 140.223Z" fill="#363636"/>
<path d="M31.4044 127.806C32.2808 128.714 32.6718 129.728 32.5778 130.851C32.4778 131.974 31.9073 133.038 30.8665 134.043C29.8348 135.039 28.7531 135.564 27.6213 135.619C26.4866 135.678 25.4854 135.257 24.6179 134.359C23.9262 133.644 23.5403 132.843 23.4602 131.959C23.3741 131.075 23.6089 130.264 24.1647 129.528L24.9649 130.357C24.6366 130.879 24.5105 131.438 24.5867 132.032C24.6599 132.63 24.9221 133.163 25.3735 133.63C25.9919 134.269 26.7269 134.551 27.5786 134.474C28.4303 134.396 29.2551 133.971 30.0532 133.201C30.8604 132.422 31.3174 131.611 31.4246 130.768C31.5317 129.926 31.2717 129.18 30.6444 128.531C30.1784 128.049 29.6749 127.749 29.1339 127.633C28.5929 127.516 28.065 127.591 27.5502 127.86L26.7501 127.032C27.546 126.556 28.3456 126.385 29.1488 126.519C29.952 126.652 30.7039 127.081 31.4044 127.806Z" fill="#363636"/>
<path d="M18.0862 124.667L20.9977 122.726L19.7864 120.91C19.461 120.422 19.0842 120.131 18.656 120.036C18.2254 119.938 17.7767 120.045 17.3099 120.356C16.8536 120.66 16.5898 121.036 16.5185 121.484C16.4472 121.932 16.5753 122.401 16.9031 122.893L18.0862 124.667ZM21.8347 122.167L24.8411 120.163L25.4729 121.111L17.8758 126.176L15.9764 123.329C15.4872 122.595 15.3034 121.871 15.425 121.156C15.5407 120.44 15.9409 119.854 16.6252 119.398C17.1553 119.045 17.7034 118.874 18.2698 118.887C18.836 118.9 19.3538 119.094 19.8231 119.471L21.8041 115.611L22.5449 116.722L20.6236 120.352L21.8347 122.167Z" fill="#363636"/>
<path d="M11.5682 113.397C10.4922 113.035 9.70059 112.257 9.19337 111.066C8.68615 109.875 8.67472 108.765 9.15919 107.739C9.64365 106.712 10.5536 105.915 11.8889 105.346C13.2243 104.778 14.4299 104.675 15.5059 105.038C16.578 105.402 17.3676 106.181 17.8749 107.372C18.3821 108.563 18.3955 109.671 17.9148 110.696C17.4303 111.723 16.5205 112.52 15.1851 113.089C13.8498 113.656 12.6441 113.759 11.5682 113.397ZM10.2066 108.228C9.81034 108.988 9.79479 109.797 10.1599 110.655C10.525 111.512 11.1197 112.064 11.944 112.309C12.7626 112.552 13.6902 112.452 14.7266 112.012C15.7591 111.572 16.4736 110.973 16.8699 110.212C17.2606 109.45 17.2734 108.641 16.9083 107.783C16.5431 106.926 15.9513 106.375 15.1325 106.132C14.3084 105.887 13.3799 105.984 12.3474 106.423C11.311 106.865 10.5973 107.466 10.2066 108.228Z" fill="#363636"/>
<path d="M12.2959 93.139L13.2957 92.9131L14.5191 98.3184L5.61269 100.333L5.36133 99.2221L13.2678 97.4341L12.2959 93.139Z" fill="#363636"/>
<path d="M11.1562 81.9202L12.1795 81.8586L12.512 87.3911L3.39692 87.9385L3.32861 86.8016L11.4204 86.3157L11.1562 81.9202Z" fill="#363636"/>
<path d="M13.3504 68.0683L13.1163 69.1828L4.17969 67.307L5.31877 61.8833L6.32205 62.0938L5.41703 66.4031L8.48883 67.0479L9.31973 63.0916L10.3106 63.2995L9.4797 67.2559L13.3504 68.0683Z" fill="#363636"/>
<path d="M8.65365 54.6706C8.15331 53.6516 8.1474 52.5426 8.63607 51.3434C9.12474 50.1443 9.90412 49.3551 10.9744 48.9758C12.0445 48.5965 13.2517 48.6805 14.5956 49.2279C15.9397 49.7753 16.8619 50.5585 17.3623 51.5775C17.8587 52.5949 17.8626 53.7031 17.374 54.9023C16.8854 56.1014 16.1078 56.8914 15.0415 57.2723C13.9714 57.6516 12.7642 57.5676 11.4203 57.0202C10.0762 56.4728 9.15406 55.6896 8.65365 54.6706ZM11.3646 50.0638C10.5459 50.3179 9.96066 50.8764 9.60888 51.7397C9.25718 52.6029 9.28447 53.4132 9.69093 54.1709C10.0951 54.923 10.8188 55.5115 11.862 55.9363C12.9012 56.3596 13.8302 56.4442 14.6489 56.1901C15.4653 55.9306 16.0494 55.3693 16.4011 54.506C16.7529 53.6429 16.7268 52.8352 16.3226 52.0831C15.9161 51.3255 15.1933 50.735 14.1539 50.3118C13.1108 49.887 12.181 49.8043 11.3646 50.0638Z" fill="#363636"/>
<path d="M15.2128 40.7864L18.1541 42.6819L19.337 40.8474C19.6547 40.3546 19.7716 39.893 19.6878 39.4626C19.6062 39.0287 19.3296 38.6598 18.858 38.3559C18.397 38.0588 17.9468 37.9669 17.5074 38.0801C17.068 38.1934 16.6882 38.4981 16.3682 38.9944L15.2128 40.7864ZM18.9998 43.2269L22.0368 45.1841L21.4197 46.1412L13.7446 41.1951L15.5995 38.3183C16.0773 37.5775 16.6682 37.1203 17.3723 36.9468C18.0752 36.7675 18.7723 36.9006 19.4638 37.3463C19.9992 37.6913 20.3739 38.126 20.588 38.6503C20.802 39.1747 20.8299 39.727 20.6715 40.3074L25.0026 40.5846L24.2792 41.7065L20.1827 41.3924L18.9998 43.2269Z" fill="#363636"/>
<path d="M39.9816 25.3695L39.166 26.0512L34.652 20.6544L34.618 20.6828L36.8583 27.8979L36.1205 28.5148L29.4139 25.0333L29.3799 25.0617L33.894 30.4585L33.0785 31.1404L27.2207 24.1371L28.2353 23.289L35.5404 27.1112L35.5793 27.0787L33.1093 19.2144L34.1239 18.3662L39.9816 25.3695Z" fill="#363636"/>
<path d="M42.0116 14.5342C42.2816 13.4315 42.9887 12.5769 44.133 11.9704C45.2773 11.3639 46.3816 11.2583 47.446 11.6537C48.5104 12.049 49.3824 12.8876 50.0623 14.1695C50.742 15.4513 50.947 16.6436 50.677 17.7462C50.405 18.845 49.6969 19.6977 48.5526 20.3043C47.4083 20.9108 46.305 21.0183 45.2426 20.6266C44.1782 20.2312 43.3061 19.3927 42.6263 18.1108C41.9465 16.829 41.7416 15.6368 42.0116 14.5342ZM47.0472 12.7386C46.2562 12.4085 45.4488 12.4617 44.6251 12.8982C43.8013 13.3349 43.3023 13.9741 43.128 14.816C42.9555 15.6521 43.133 16.5677 43.6606 17.5626C44.1863 18.5538 44.8447 19.2145 45.6357 19.5446C46.4285 19.8691 47.2368 19.8131 48.0605 19.3764C48.8843 18.9398 49.3824 18.3035 49.555 17.4673C49.7293 16.6254 49.5536 15.7089 49.0279 14.7177C48.5003 13.7228 47.84 13.0631 47.0472 12.7386Z" fill="#363636"/>
<path d="M55.9515 8.08952L56.9916 11.4299L59.0762 10.7812C59.6361 10.607 60.022 10.3278 60.2338 9.94392C60.4497 9.55862 60.4742 9.09826 60.3074 8.56267C60.1444 8.03915 59.858 7.67993 59.4483 7.48499C59.0385 7.29005 58.5517 7.28033 57.9877 7.45583L55.9515 8.08952ZM57.2907 12.3903L58.3647 15.8395L57.2771 16.1779L54.563 7.4615L57.8318 6.44422C58.6737 6.18222 59.4203 6.21047 60.0718 6.52896C60.726 6.84216 61.1754 7.3914 61.42 8.17665C61.6093 8.78471 61.6178 9.35852 61.4456 9.898C61.2734 10.4376 60.9404 10.8791 60.4464 11.2227L63.5912 14.213L62.3162 14.6097L59.3753 11.7416L57.2907 12.3903Z" fill="#363636"/>
<path d="M74.2631 11.3541L74.3995 12.3698L68.7924 13.1225L67.5771 4.07473L73.1842 3.32202L73.3206 4.33779L68.8425 4.93895L69.2325 7.84202L73.4785 7.27202L73.6133 8.27524L69.3672 8.84525L69.7849 11.9552L74.2631 11.3541Z" fill="#363636"/>
<path d="M86.9116 9.82244L88.0464 9.9814C88.0318 10.4777 88.2149 10.9037 88.5956 11.2594C88.9795 11.6156 89.4963 11.8391 90.1435 11.9299C90.7534 12.0154 91.2775 11.9419 91.7141 11.7093C92.1563 11.4732 92.4082 11.1337 92.4706 10.6909C92.5241 10.3109 92.4277 9.978 92.1822 9.69231C91.9417 9.40726 91.527 9.14263 90.9389 8.8984L89.8219 8.4352C89.0168 8.10505 88.4482 7.72302 88.1169 7.28907C87.7864 6.85093 87.6641 6.32487 87.7507 5.71088C87.856 4.95906 88.2384 4.38665 88.8985 3.99365C89.5627 3.60124 90.3646 3.4709 91.305 3.60265C92.2033 3.72854 92.9129 4.07502 93.4337 4.6421C93.9553 5.20499 94.1765 5.86619 94.0955 6.6257L92.9671 6.4676C92.985 5.97606 92.8294 5.56461 92.5014 5.23324C92.1725 4.90187 91.7141 4.6949 91.1252 4.61234C90.5404 4.53036 90.0422 4.60115 89.6316 4.8247C89.2257 5.04884 88.9917 5.38227 88.9293 5.82501C88.8815 6.16751 88.9755 6.46817 89.212 6.72702C89.4525 6.98227 89.8697 7.2323 90.461 7.47709L91.3722 7.86033C92.2754 8.22539 92.9048 8.63084 93.2596 9.07663C93.6143 9.5225 93.7464 10.0691 93.6556 10.7165C93.5398 11.5435 93.1429 12.1565 92.4649 12.5555C91.7918 12.951 90.9349 13.0757 89.8948 12.93C88.9342 12.7952 88.1817 12.445 87.6398 11.8792C87.0971 11.3134 86.8541 10.6278 86.9116 9.82244Z" fill="#363636"/>
<path d="M102.23 15.805C101.032 15.4093 100.214 14.6925 99.7749 13.6546C99.3416 12.6141 99.3521 11.4071 99.8057 10.0335C100.256 8.67197 100.97 7.70383 101.946 7.12917C102.923 6.5505 104.006 6.45704 105.191 6.8488C106.136 7.16115 106.85 7.69015 107.332 8.43583C107.82 9.17881 107.988 10.0053 107.838 10.9152L106.745 10.5539C106.793 9.93895 106.645 9.38587 106.301 8.89458C105.958 8.39931 105.478 8.04976 104.861 7.84594C104.016 7.56668 103.234 7.65937 102.517 8.12399C101.799 8.58864 101.265 9.34757 100.918 10.4008C100.565 11.466 100.538 12.3963 100.834 13.1918C101.132 13.9873 101.708 14.5266 102.565 14.8099C103.203 15.0203 103.788 15.0515 104.321 14.9034C104.854 14.7554 105.286 14.4428 105.617 13.9658L106.711 14.3272C106.227 15.118 105.599 15.641 104.826 15.8964C104.053 16.1518 103.187 16.1213 102.23 15.805Z" fill="#363636"/>
<path d="M115.482 12.394L113.807 15.4658L115.724 16.5105C116.239 16.791 116.708 16.8737 117.131 16.7585C117.558 16.6453 117.905 16.3424 118.174 15.8499C118.437 15.3685 118.496 14.9129 118.35 14.4831C118.205 14.0533 117.873 13.6971 117.354 13.4145L115.482 12.394ZM113.325 16.3489L111.596 19.5207L110.596 18.9756L114.966 10.9602L117.972 12.5984C118.747 13.0203 119.246 13.5759 119.471 14.2653C119.701 14.9528 119.619 15.6578 119.225 16.3798C118.921 16.939 118.515 17.3445 118.007 17.5965C117.5 17.8483 116.951 17.9166 116.36 17.8013L116.402 22.1399L115.23 21.501L115.242 17.3936L113.325 16.3489Z" fill="#363636"/>
<path d="M126.494 19.3424C127.615 19.1633 128.677 19.4833 129.68 20.3023C130.683 21.1212 131.209 22.0978 131.257 23.232C131.306 24.3661 130.872 25.495 129.953 26.6188C129.035 27.7425 128.016 28.394 126.895 28.573C125.776 28.7488 124.715 28.4272 123.712 27.6082C122.708 26.7892 122.182 25.8143 122.13 24.6834C122.082 23.5492 122.516 22.4203 123.434 21.2966C124.353 20.1728 125.372 19.5214 126.494 19.3424ZM130.103 23.2856C130.1 22.4286 129.738 21.7053 129.016 21.1157C128.293 20.5261 127.51 20.3143 126.667 20.4804C125.829 20.6458 125.053 21.1647 124.341 22.0369C123.632 22.9058 123.278 23.7688 123.28 24.6258C123.289 25.4823 123.655 26.2052 124.376 26.7948C125.099 27.3844 125.879 27.5964 126.716 27.431C127.56 27.2649 128.336 26.7475 129.047 25.8785C129.759 25.0063 130.111 24.142 130.103 23.2856Z" fill="#363636"/>
<path d="M135.271 37.6154L134.491 38.2804L130.894 34.0635L137.842 28.1401L138.581 29.0066L132.413 34.2649L135.271 37.6154Z" fill="#363636"/>
<path d="M141.496 47.0183L140.619 47.5484L137.752 42.8052L145.567 38.0837L146.156 39.0584L139.219 43.2497L141.496 47.0183Z" fill="#363636"/>
<path d="M145.996 60.3021L145.685 59.2066L154.47 56.7136L155.983 62.0449L154.997 62.3248L153.795 58.089L150.775 58.9459L151.879 62.8348L150.906 63.1112L149.801 59.2223L145.996 60.3021Z" fill="#363636"/>
<path d="M156.384 69.9808C157.301 70.6503 157.823 71.6295 157.948 72.9183C158.072 74.2071 157.75 75.2681 156.979 76.1013C156.208 76.9346 155.1 77.4213 153.655 77.5613C152.21 77.7014 151.03 77.4366 150.113 76.767C149.2 76.097 148.681 75.1177 148.556 73.8289C148.432 72.5401 148.752 71.4793 149.52 70.6465C150.291 69.8132 151.398 69.3266 152.843 69.1865C154.287 69.0464 155.467 69.3112 156.384 69.9808ZM156.127 75.3195C156.733 74.714 156.992 73.9475 156.902 73.0197C156.812 72.0919 156.411 71.3872 155.699 70.9053C154.991 70.4273 154.077 70.2427 152.956 70.3515C151.839 70.4597 150.977 70.8166 150.37 71.4221C149.768 72.0313 149.512 72.7998 149.602 73.7275C149.692 74.6553 150.091 75.3582 150.799 75.8362C151.511 76.318 152.425 76.5047 153.542 76.3964C154.663 76.2877 155.525 75.9288 156.127 75.3195Z" fill="#363636"/>
<path d="M157.035 85.3221L153.549 85.0103L153.355 87.1846C153.303 87.7684 153.414 88.2316 153.688 88.5734C153.962 88.92 154.379 89.1183 154.938 89.1677C155.484 89.2163 155.925 89.0884 156.261 88.7839C156.598 88.4794 156.793 88.0332 156.845 87.4453L157.035 85.3221ZM152.547 84.9212L148.948 84.5998L149.049 83.4661L158.144 84.2775L157.84 87.6866C157.761 88.5645 157.451 89.2439 156.908 89.7249C156.369 90.2099 155.69 90.4164 154.87 90.3436C154.236 90.2869 153.702 90.0763 153.269 89.7111C152.836 89.3467 152.554 88.8706 152.424 88.2826L148.461 90.0504L148.58 88.7216L152.353 87.0955L152.547 84.9212Z" fill="#363636"/>
<path d="M142.275 110.484L142.68 109.502L149.187 112.181L149.204 112.141L143.864 106.794L144.231 105.904L151.788 105.87L151.805 105.829L145.298 103.149L145.703 102.167L154.146 105.644L153.642 106.866L145.397 106.878L145.378 106.925L151.222 112.739L150.718 113.962L142.275 110.484Z" fill="#363636"/>
<path d="M145.517 121.021C145.791 122.122 145.563 123.207 144.831 124.276C144.101 125.345 143.172 125.952 142.046 126.096C140.919 126.241 139.757 125.905 138.559 125.085C137.361 124.266 136.625 123.306 136.351 122.205C136.082 121.105 136.312 120.021 137.043 118.953C137.774 117.884 138.7 117.275 139.823 117.128C140.95 116.984 142.111 117.321 143.309 118.14C144.507 118.958 145.244 119.919 145.517 121.021ZM141.894 124.951C142.748 124.875 143.438 124.453 143.965 123.683C144.49 122.914 144.635 122.116 144.398 121.29C144.161 120.469 143.579 119.741 142.649 119.106C141.722 118.472 140.832 118.194 139.979 118.269C139.126 118.35 138.436 118.775 137.91 119.545C137.383 120.315 137.238 121.109 137.475 121.93C137.712 122.756 138.294 123.486 139.22 124.119C140.149 124.755 141.041 125.032 141.894 124.951Z" fill="#363636"/>
<path d="M136.172 133.206L133.698 130.732L132.155 132.275C131.74 132.69 131.528 133.116 131.519 133.555C131.507 133.996 131.7 134.415 132.097 134.811C132.484 135.199 132.905 135.384 133.358 135.366C133.811 135.348 134.247 135.13 134.664 134.713L136.172 133.206ZM132.987 130.021L130.432 127.466L131.237 126.661L137.694 133.116L135.273 135.536C134.65 136.16 133.976 136.482 133.251 136.503C132.526 136.53 131.872 136.252 131.291 135.671C130.84 135.22 130.566 134.716 130.468 134.159C130.369 133.601 130.459 133.055 130.736 132.521L126.561 131.336L127.505 130.392L131.443 131.564L132.987 130.021Z" fill="#363636"/>
<path d="M118.442 138.827L117.849 137.99L122.463 134.718L127.747 142.164L123.133 145.436L122.54 144.601L126.225 141.987L124.529 139.598L121.035 142.076L120.449 141.251L123.944 138.772L122.128 136.213L118.442 138.827Z" fill="#363636"/>
<path d="M80 70.0002C80.5523 70.0002 81 70.448 81 71.0002V82.586L85.2929 78.2931C85.6834 77.9026 86.3166 77.9026 86.7071 78.2931C87.0976 78.6837 87.0976 79.3168 86.7071 79.7074L80.7071 85.7074C80.3166 86.0979 79.6834 86.0979 79.2929 85.7074L73.2929 79.7074C72.9024 79.3168 72.9024 78.6837 73.2929 78.2931C73.6834 77.9026 74.3166 77.9026 74.7071 78.2931L79 82.586V71.0002C79 70.448 79.4477 70.0002 80 70.0002Z" fill="white"/>
</svg>
