<svg width="16" height="16" viewBox="0 0 16 16" fill="none" xmlns="http://www.w3.org/2000/svg">
<g clip-path="url(#clip0_42_420)">
<path fill-rule="evenodd" clip-rule="evenodd" d="M8.0001 0.333336C6.10091 0.334321 4.26401 1.00697 2.81783 2.23102C1.37166 3.45506 0.410521 5.15068 0.106282 7.01467C-0.197958 8.87866 0.174536 10.7895 1.15717 12.4055C2.13979 14.0214 3.66848 15.2372 5.46987 15.8353C5.86729 15.9091 6.01698 15.6628 6.01698 15.4533C6.01698 15.2439 6.00903 14.6367 6.00638 13.9728C3.78085 14.4536 3.31058 13.0337 3.31058 13.0337C2.9476 12.1116 2.42301 11.8693 2.42301 11.8693C1.69706 11.3766 2.47733 11.3859 2.47733 11.3859C3.28143 11.4425 3.70402 12.2065 3.70402 12.2065C4.41672 13.4222 5.57585 13.0705 6.03155 12.8651C6.10309 12.35 6.31107 11.9997 6.54025 11.8008C4.76247 11.6006 2.89461 10.9183 2.89461 7.87028C2.88359 7.07981 3.1786 6.31537 3.71859 5.73512C3.63646 5.53491 3.36224 4.72616 3.79675 3.62762C3.79675 3.62762 4.46839 3.41424 5.99712 4.44296C7.30836 4.08642 8.69183 4.08642 10.0031 4.44296C11.5305 3.41424 12.2008 3.62762 12.2008 3.62762C12.6366 4.72352 12.3624 5.53228 12.2803 5.73512C12.822 6.31546 13.1176 7.08124 13.1056 7.87292C13.1056 10.9275 11.2337 11.6006 9.45331 11.7968C9.73945 12.0445 9.99513 12.5279 9.99513 13.2708C9.99513 14.335 9.98585 15.1912 9.98585 15.4533C9.98585 15.6654 10.1302 15.913 10.5356 15.8353C12.3372 15.2371 13.866 14.0211 14.8487 12.4049C15.8313 10.7886 16.2036 8.87753 15.899 7.01337C15.5944 5.1492 14.6328 3.45357 13.1861 2.22974C11.7395 1.00591 9.90215 0.333697 8.00274 0.333336H8.0001Z" fill="#18181B"/>
<path d="M5.35189 13.3168C5.35189 13.3814 5.27771 13.4367 5.18233 13.438C5.08695 13.4393 5.00879 13.3867 5.00879 13.3221C5.00879 13.2576 5.08297 13.2022 5.17835 13.2009C5.27373 13.1996 5.35189 13.251 5.35189 13.3168Z" fill="#18181B"/>
<path d="M5.96118 13.2154C5.9731 13.28 5.90687 13.3471 5.81149 13.3629C5.71611 13.3788 5.63265 13.3406 5.62073 13.2773C5.60881 13.2141 5.67769 13.1456 5.77042 13.1285C5.86315 13.1114 5.94926 13.1509 5.96118 13.2154Z" fill="#18181B"/>
<path d="M4.69753 13.2721C4.67766 13.334 4.58758 13.3616 4.4975 13.3353C4.40742 13.3089 4.3478 13.2352 4.36502 13.172C4.38225 13.1087 4.47365 13.0798 4.56506 13.1087C4.65646 13.1377 4.71475 13.2075 4.69753 13.2721Z" fill="#18181B"/>
<path d="M4.09725 13.0139C4.05353 13.0626 3.96478 13.0495 3.89192 12.9836C3.81906 12.9177 3.80183 12.8282 3.84555 12.7808C3.88926 12.7333 3.97802 12.7465 4.05353 12.811C4.12904 12.8756 4.14361 12.9665 4.09725 13.0139V13.0139Z" fill="#18181B"/>
<path d="M3.66958 12.5713C3.62056 12.6056 3.5371 12.5713 3.49074 12.5028C3.47791 12.4905 3.46772 12.4758 3.46075 12.4595C3.45379 12.4432 3.4502 12.4257 3.4502 12.408C3.4502 12.3903 3.45379 12.3728 3.46075 12.3565C3.46772 12.3402 3.47791 12.3254 3.49074 12.3132C3.53975 12.2802 3.62321 12.3132 3.66958 12.3803C3.71594 12.4475 3.71727 12.5371 3.66958 12.5713V12.5713Z" fill="#18181B"/>
<path d="M3.35423 12.1143C3.3268 12.128 3.29541 12.1318 3.26545 12.1251C3.23548 12.1184 3.2088 12.1015 3.18997 12.0774C3.13831 12.0221 3.1277 11.9457 3.16744 11.9114C3.20719 11.8772 3.27873 11.893 3.33039 11.9483C3.38205 12.0036 3.39398 12.08 3.35423 12.1143Z" fill="#18181B"/>
<path d="M3.02954 11.7547C3.01232 11.7942 2.94873 11.806 2.89707 11.7784C2.84541 11.7507 2.80699 11.6993 2.82554 11.6585C2.84408 11.6177 2.90635 11.6071 2.95801 11.6348C3.00967 11.6625 3.04941 11.7152 3.02954 11.7547Z" fill="#18181B"/>
</g>
<defs>
<clipPath id="clip0_42_420">
<rect width="16" height="16" fill="white"/>
</clipPath>
</defs>
</svg>
